<svg width="39" height="46" viewBox="0 0 39 46" fill="none" xmlns="http://www.w3.org/2000/svg">
    <path fill-rule="evenodd" clip-rule="evenodd" d="M27.2947 13.4092L33.5123 13.4316C33.5047 15.0713 32.8391 16.6436 31.6591 17.7928C31.3793 18.0661 31.0767 18.3094 30.7515 18.5265L27.2947 13.4092ZM0.446276 45.6743C0.185318 45.5545 0 45.2962 0 44.9893V0.748698C0 0.336914 0.336598 0 0.7564 0H8.09348H38.2436C38.6596 0 39 0.333171 39 0.748698V41.0773C39 41.1185 38.9962 41.1559 38.9924 41.1934C38.8865 42.6646 38.4024 43.8101 37.5326 44.6299C36.6627 45.446 35.4411 45.9027 33.8565 45.9925C33.8224 45.9963 33.7922 46 33.7581 46H1.07031C0.81313 46 0.582428 45.869 0.446276 45.6743ZM13.4261 13.0648H15.3209C15.423 13.0648 15.5024 13.1471 15.5024 13.2445V16.9318C15.5024 17.0329 15.4192 17.1115 15.3209 17.1115H13.4261C13.324 17.1115 13.2446 17.0291 13.2446 16.9318V13.2445C13.2446 13.1471 13.324 13.0648 13.4261 13.0648ZM6.37267 10.8075H8.26746C8.36957 10.8075 8.44899 10.8898 8.44899 10.9871V16.9355C8.44899 17.0366 8.36579 17.1152 8.26746 17.1152H6.37267C6.27056 17.1152 6.19114 17.0329 6.19114 16.9355V10.9871C6.18735 10.8898 6.27056 10.8075 6.37267 10.8075ZM9.90128 9.53841H11.7961C11.8982 9.53841 11.9776 9.62077 11.9776 9.7181V16.9355C11.9776 17.0366 11.8944 17.1152 11.7961 17.1152H9.90128C9.79916 17.1152 9.71974 17.0329 9.71974 16.9355V9.7181C9.71596 9.61703 9.79916 9.53841 9.90128 9.53841ZM37.491 41.0586V1.49365H8.09348H1.50902V44.5064H33.7544H33.7695C34.9835 44.439 35.8912 44.117 36.4925 43.5518C37.0863 42.994 37.4153 42.1592 37.491 41.0586ZM6.36133 39.9206C5.94909 39.9206 5.61249 39.5874 5.61249 39.1719C5.61249 38.7601 5.94531 38.4269 6.36133 38.4269H33.0244C33.4367 38.4269 33.7733 38.7601 33.7733 39.1719C33.7733 39.5837 33.4405 39.9206 33.0244 39.9206H6.36133ZM6.48235 34.4701C6.07011 34.4701 5.73351 34.1369 5.73351 33.7214C5.73351 33.3096 6.06633 32.9727 6.48235 32.9727H32.9564C33.3686 32.9727 33.7052 33.3058 33.7052 33.7214C33.7052 34.1331 33.3724 34.4701 32.9564 34.4701H6.48235ZM6.36133 29.0195C5.94909 29.0195 5.61249 28.6864 5.61249 28.2708C5.61249 27.8591 5.94531 27.5259 6.36133 27.5259H17.7565C18.1687 27.5259 18.5053 27.8591 18.5053 28.2708C18.5053 28.6826 18.1725 29.0195 17.7565 29.0195H6.36133ZM20.6649 29.0195C20.2526 29.0195 19.916 28.6864 19.916 28.2708C19.916 27.8591 20.2488 27.5259 20.6649 27.5259H32.9564C33.3686 27.5259 33.7052 27.8591 33.7052 28.2708C33.7052 28.6826 33.3724 29.0195 32.9564 29.0195H20.6649ZM6.36133 24.1567C5.94909 24.1567 5.61249 23.8236 5.61249 23.408C5.61249 22.9963 5.94531 22.6593 6.36133 22.6593H15.7558C16.1681 22.6593 16.5047 22.9925 16.5047 23.408C16.5047 23.8198 16.1718 24.1567 15.7558 24.1567H6.36133ZM6.36133 5.20719C5.94909 5.20719 5.61249 4.87402 5.61249 4.4585C5.61249 4.04297 5.94531 3.7098 6.36133 3.7098H11.9738C12.3861 3.7098 12.7227 4.04297 12.7227 4.4585C12.7227 4.87402 12.3898 5.20719 11.9738 5.20719H6.36133ZM26.6593 12.1888L26.3265 5.61149C26.3189 5.48047 26.4211 5.37191 26.5534 5.36442C26.5912 5.36068 26.6366 5.36068 26.6858 5.36068C26.7274 5.36068 26.7728 5.35693 26.8182 5.35693C28.6449 5.33822 30.3165 6.02327 31.5684 7.1613C32.8202 8.30306 33.6485 9.89779 33.7771 11.7022C33.7846 11.8332 33.6863 11.9455 33.5577 11.953L26.9089 12.4246C26.7766 12.4321 26.6631 12.3348 26.6555 12.2075C26.6593 12.2 26.6593 12.1925 26.6593 12.1888ZM26.8144 5.82861L27.1245 11.938L33.2892 11.5037C33.1152 9.92025 32.3626 8.52393 31.2545 7.51318C30.0896 6.45003 28.5276 5.81364 26.8295 5.83236L26.8144 5.82861ZM25.9143 13.1247L29.2462 18.8372C28.2326 19.4175 27.0829 19.7207 25.9143 19.7207C22.2344 19.7207 19.2504 16.7671 19.2504 13.1247C19.2504 9.85287 21.6747 7.07145 24.9461 6.59977L25.9143 13.1247Z" fill="white"/>
    </svg>
    